<mxfile host="app.diagrams.net" agent="Mozilla/5.0 (Windows NT 10.0; Win64; x64; rv:129.0) Gecko/20100101 Firefox/129.0" version="24.7.7">
  <diagram name="ページ1" id="6O8cq4Rfigk1k-ii5kAo">
    <mxGraphModel dx="2222" dy="1943" grid="1" gridSize="10" guides="1" tooltips="1" connect="1" arrows="1" fold="1" page="1" pageScale="1" pageWidth="827" pageHeight="1169" math="0" shadow="0">
      <root>
        <mxCell id="0" />
        <object label="ソフトウェア" id="ExSx5SIZApUU_Iw7rpWn-6">
          <mxCell style="locked=1;" parent="0" />
        </object>
        <mxCell id="ExSx5SIZApUU_Iw7rpWn-7" value="&lt;font style=&quot;font-size: 18px;&quot;&gt;Controller Node&lt;/font&gt;" style="rounded=1;whiteSpace=wrap;html=1;fillColor=#dae8fc;strokeColor=#6c8ebf;" parent="ExSx5SIZApUU_Iw7rpWn-6" vertex="1">
          <mxGeometry x="-400" y="120" width="240" height="40" as="geometry" />
        </mxCell>
        <mxCell id="ExSx5SIZApUU_Iw7rpWn-9" value="&lt;div style=&quot;font-size: 18px;&quot;&gt;&lt;font style=&quot;font-size: 18px;&quot;&gt;Gateway&lt;/font&gt;&lt;/div&gt;" style="rounded=1;whiteSpace=wrap;html=1;fillColor=#dae8fc;strokeColor=#6c8ebf;" parent="ExSx5SIZApUU_Iw7rpWn-6" vertex="1">
          <mxGeometry x="160" y="120" width="240" height="40" as="geometry" />
        </mxCell>
        <mxCell id="ExSx5SIZApUU_Iw7rpWn-39" value="&lt;font style=&quot;font-size: 14px;&quot;&gt;CentOS 9 Stream&lt;/font&gt;" style="rounded=1;whiteSpace=wrap;html=1;fillColor=#008a00;strokeColor=#005700;fontColor=#ffffff;" parent="ExSx5SIZApUU_Iw7rpWn-6" vertex="1">
          <mxGeometry x="160" y="70" width="240" height="40" as="geometry" />
        </mxCell>
        <mxCell id="ExSx5SIZApUU_Iw7rpWn-41" value="&lt;font style=&quot;font-size: 14px;&quot;&gt;CentOS 9 Stream&lt;/font&gt;" style="rounded=1;whiteSpace=wrap;html=1;fillColor=#008a00;strokeColor=#005700;fontColor=#ffffff;" parent="ExSx5SIZApUU_Iw7rpWn-6" vertex="1">
          <mxGeometry x="-400" y="70" width="240" height="40" as="geometry" />
        </mxCell>
        <mxCell id="ExSx5SIZApUU_Iw7rpWn-43" value="&lt;div&gt;DNSサーバ&lt;/div&gt;" style="rounded=1;whiteSpace=wrap;html=1;fillColor=#1ba1e2;strokeColor=#006EAF;fontColor=#ffffff;" parent="ExSx5SIZApUU_Iw7rpWn-6" vertex="1">
          <mxGeometry x="160" y="20" width="240" height="40" as="geometry" />
        </mxCell>
        <mxCell id="ExSx5SIZApUU_Iw7rpWn-44" value="NTPサーバ" style="rounded=1;whiteSpace=wrap;html=1;fillColor=#1ba1e2;strokeColor=#006EAF;fontColor=#ffffff;" parent="ExSx5SIZApUU_Iw7rpWn-6" vertex="1">
          <mxGeometry x="160" y="-30" width="240" height="40" as="geometry" />
        </mxCell>
        <mxCell id="ExSx5SIZApUU_Iw7rpWn-46" value="cri-o" style="rounded=1;whiteSpace=wrap;html=1;fillColor=#e3c800;strokeColor=#B09500;fontColor=#000000;" parent="ExSx5SIZApUU_Iw7rpWn-6" vertex="1">
          <mxGeometry x="-400" y="20" width="240" height="40" as="geometry" />
        </mxCell>
        <mxCell id="ExSx5SIZApUU_Iw7rpWn-54" value="kubelet" style="rounded=1;whiteSpace=wrap;html=1;fillColor=#e3c800;strokeColor=#B09500;fontColor=#000000;" parent="ExSx5SIZApUU_Iw7rpWn-6" vertex="1">
          <mxGeometry x="-400" y="-30" width="240" height="40" as="geometry" />
        </mxCell>
        <mxCell id="ExSx5SIZApUU_Iw7rpWn-55" value="kube-proxy" style="rounded=1;whiteSpace=wrap;html=1;fillColor=#e3c800;strokeColor=#B09500;fontColor=#000000;" parent="ExSx5SIZApUU_Iw7rpWn-6" vertex="1">
          <mxGeometry x="-400" y="-80" width="240" height="40" as="geometry" />
        </mxCell>
        <mxCell id="ExSx5SIZApUU_Iw7rpWn-56" value="etcd-controller" style="rounded=1;whiteSpace=wrap;html=1;fillColor=#e3c800;strokeColor=#B09500;fontColor=#000000;" parent="ExSx5SIZApUU_Iw7rpWn-6" vertex="1">
          <mxGeometry x="-400" y="-130" width="240" height="40" as="geometry" />
        </mxCell>
        <mxCell id="ExSx5SIZApUU_Iw7rpWn-58" value="coredns" style="rounded=1;whiteSpace=wrap;html=1;fillColor=#e3c800;strokeColor=#B09500;fontColor=#000000;" parent="ExSx5SIZApUU_Iw7rpWn-6" vertex="1">
          <mxGeometry x="-400" y="-180" width="240" height="40" as="geometry" />
        </mxCell>
        <mxCell id="ExSx5SIZApUU_Iw7rpWn-61" value="" style="endArrow=none;html=1;rounded=0;dashed=1;dashPattern=8 8;" parent="ExSx5SIZApUU_Iw7rpWn-6" edge="1">
          <mxGeometry width="50" height="50" relative="1" as="geometry">
            <mxPoint x="140" y="180" as="sourcePoint" />
            <mxPoint x="140" y="-660" as="targetPoint" />
          </mxGeometry>
        </mxCell>
        <mxCell id="cqkGdE5jOxsWHkqsSoji-1" value="kube-scheduler-controller" style="rounded=1;whiteSpace=wrap;html=1;fillColor=#e3c800;strokeColor=#B09500;fontColor=#000000;" parent="ExSx5SIZApUU_Iw7rpWn-6" vertex="1">
          <mxGeometry x="-400" y="-230" width="240" height="40" as="geometry" />
        </mxCell>
        <mxCell id="nfMndtaqAt7SIkyzc18q-0" value="kube-api-server-controller" style="rounded=1;whiteSpace=wrap;html=1;fillColor=#e3c800;strokeColor=#B09500;fontColor=#000000;" parent="ExSx5SIZApUU_Iw7rpWn-6" vertex="1">
          <mxGeometry x="-400" y="-280" width="240" height="40" as="geometry" />
        </mxCell>
        <mxCell id="UXSxnWDJ8inHhZq6t_YR-0" value="kube-controller-manger-controller" style="rounded=1;whiteSpace=wrap;html=1;fillColor=#e3c800;strokeColor=#B09500;fontColor=#000000;" parent="ExSx5SIZApUU_Iw7rpWn-6" vertex="1">
          <mxGeometry x="-400" y="-330" width="240" height="40" as="geometry" />
        </mxCell>
        <mxCell id="FE9gcxEgiFbbb8fEMV-Z-0" value="" style="endArrow=none;html=1;rounded=0;dashed=1;dashPattern=8 8;" parent="ExSx5SIZApUU_Iw7rpWn-6" edge="1">
          <mxGeometry width="50" height="50" relative="1" as="geometry">
            <mxPoint x="-140" y="180" as="sourcePoint" />
            <mxPoint x="-140" y="-660" as="targetPoint" />
          </mxGeometry>
        </mxCell>
        <mxCell id="FE9gcxEgiFbbb8fEMV-Z-1" value="&lt;font style=&quot;font-size: 18px;&quot;&gt;Worker Node&lt;/font&gt;" style="rounded=1;whiteSpace=wrap;html=1;fillColor=#dae8fc;strokeColor=#6c8ebf;" parent="ExSx5SIZApUU_Iw7rpWn-6" vertex="1">
          <mxGeometry x="-120" y="120" width="240" height="40" as="geometry" />
        </mxCell>
        <mxCell id="FE9gcxEgiFbbb8fEMV-Z-2" value="&lt;font style=&quot;font-size: 14px;&quot;&gt;CentOS 9 Stream&lt;/font&gt;" style="rounded=1;whiteSpace=wrap;html=1;fillColor=#008a00;strokeColor=#005700;fontColor=#ffffff;" parent="ExSx5SIZApUU_Iw7rpWn-6" vertex="1">
          <mxGeometry x="-120" y="70" width="240" height="40" as="geometry" />
        </mxCell>
        <mxCell id="FE9gcxEgiFbbb8fEMV-Z-3" value="cri-o" style="rounded=1;whiteSpace=wrap;html=1;fillColor=#e3c800;strokeColor=#B09500;fontColor=#000000;" parent="ExSx5SIZApUU_Iw7rpWn-6" vertex="1">
          <mxGeometry x="-120" y="20" width="240" height="40" as="geometry" />
        </mxCell>
        <mxCell id="FE9gcxEgiFbbb8fEMV-Z-4" value="kubelet" style="rounded=1;whiteSpace=wrap;html=1;fillColor=#e3c800;strokeColor=#B09500;fontColor=#000000;" parent="ExSx5SIZApUU_Iw7rpWn-6" vertex="1">
          <mxGeometry x="-120" y="-30" width="240" height="40" as="geometry" />
        </mxCell>
        <mxCell id="FE9gcxEgiFbbb8fEMV-Z-5" value="kube-proxy" style="rounded=1;whiteSpace=wrap;html=1;fillColor=#e3c800;strokeColor=#B09500;fontColor=#000000;" parent="ExSx5SIZApUU_Iw7rpWn-6" vertex="1">
          <mxGeometry x="-120" y="-80" width="240" height="40" as="geometry" />
        </mxCell>
        <mxCell id="FA41vLQBbeEb9Dud8pYh-0" value="tigera-operator" style="rounded=1;whiteSpace=wrap;html=1;fillColor=#e3c800;strokeColor=#B09500;fontColor=#000000;" vertex="1" parent="ExSx5SIZApUU_Iw7rpWn-6">
          <mxGeometry x="-400" y="-380" width="240" height="40" as="geometry" />
        </mxCell>
        <mxCell id="FA41vLQBbeEb9Dud8pYh-1" value="csi-node-driver" style="rounded=1;whiteSpace=wrap;html=1;fillColor=#e3c800;strokeColor=#B09500;fontColor=#000000;" vertex="1" parent="ExSx5SIZApUU_Iw7rpWn-6">
          <mxGeometry x="-400" y="-430" width="240" height="40" as="geometry" />
        </mxCell>
        <mxCell id="FA41vLQBbeEb9Dud8pYh-2" value="csi-node-driver" style="rounded=1;whiteSpace=wrap;html=1;fillColor=#e3c800;strokeColor=#B09500;fontColor=#000000;" vertex="1" parent="ExSx5SIZApUU_Iw7rpWn-6">
          <mxGeometry x="-120" y="-130" width="240" height="40" as="geometry" />
        </mxCell>
        <mxCell id="FA41vLQBbeEb9Dud8pYh-3" value="calico-typha" style="rounded=1;whiteSpace=wrap;html=1;fillColor=#e3c800;strokeColor=#B09500;fontColor=#000000;" vertex="1" parent="ExSx5SIZApUU_Iw7rpWn-6">
          <mxGeometry x="-400" y="-480" width="240" height="40" as="geometry" />
        </mxCell>
        <mxCell id="FA41vLQBbeEb9Dud8pYh-4" value="calico-typha" style="rounded=1;whiteSpace=wrap;html=1;fillColor=#e3c800;strokeColor=#B09500;fontColor=#000000;" vertex="1" parent="ExSx5SIZApUU_Iw7rpWn-6">
          <mxGeometry x="-120" y="-180" width="240" height="40" as="geometry" />
        </mxCell>
        <mxCell id="FA41vLQBbeEb9Dud8pYh-5" value="calico-node" style="rounded=1;whiteSpace=wrap;html=1;fillColor=#e3c800;strokeColor=#B09500;fontColor=#000000;" vertex="1" parent="ExSx5SIZApUU_Iw7rpWn-6">
          <mxGeometry x="-400" y="-530" width="240" height="40" as="geometry" />
        </mxCell>
        <mxCell id="FA41vLQBbeEb9Dud8pYh-6" value="calico-node" style="rounded=1;whiteSpace=wrap;html=1;fillColor=#e3c800;strokeColor=#B09500;fontColor=#000000;" vertex="1" parent="ExSx5SIZApUU_Iw7rpWn-6">
          <mxGeometry x="-120" y="-230" width="240" height="40" as="geometry" />
        </mxCell>
        <mxCell id="FA41vLQBbeEb9Dud8pYh-7" value="calico-kube-controllers" style="rounded=1;whiteSpace=wrap;html=1;fillColor=#e3c800;strokeColor=#B09500;fontColor=#000000;" vertex="1" parent="ExSx5SIZApUU_Iw7rpWn-6">
          <mxGeometry x="-400" y="-584.5" width="240" height="40" as="geometry" />
        </mxCell>
        <mxCell id="FA41vLQBbeEb9Dud8pYh-8" value="calico-apiserver" style="rounded=1;whiteSpace=wrap;html=1;fillColor=#e3c800;strokeColor=#B09500;fontColor=#000000;" vertex="1" parent="ExSx5SIZApUU_Iw7rpWn-6">
          <mxGeometry x="-400" y="-640" width="240" height="40" as="geometry" />
        </mxCell>
      </root>
    </mxGraphModel>
  </diagram>
</mxfile>
